<?xml version="1.0" encoding="utf-8"?>
<!-- Generator: Adobe Illustrator 24.1.1, SVG Export Plug-In . SVG Version: 6.00 Build 0)  -->
<svg version="1.1" id="Layer_1" xmlns="http://www.w3.org/2000/svg" xmlns:xlink="http://www.w3.org/1999/xlink" x="0px" y="0px"
	 viewBox="0 0 512 512" style="enable-background:new 0 0 512 512;" xml:space="preserve">
<style type="text/css">
	.st0{fill-rule:evenodd;clip-rule:evenodd;}
</style>
<g>
	<path class="st0" d="M384,160H64c-17.7,0-32,14.3-32,32v128c0,17.7,14.3,32,32,32h320c17.7,0,32-14.3,32-32V192
		C416,174.3,401.7,160,384,160z M64,128c-35.4,0-64,28.6-64,64v128c0,35.4,28.6,64,64,64h320c35.4,0,64-28.6,64-64V192
		c0-35.4-28.6-64-64-64H64z"/>
	<path d="M464,304c26.5,0,48-21.5,48-48s-21.5-48-48-48V304z"/>
</g>
</svg>
